<?xml version="1.0" encoding="UTF-8"?>
<svg width="1132px" height="272px" viewBox="0 0 1132 272" version="1.1" xmlns="http://www.w3.org/2000/svg" xmlns:xlink="http://www.w3.org/1999/xlink">
    <title>Untitled 8</title>
    <g id="Page-1" stroke="none" stroke-width="1" fill="none" fill-rule="evenodd">
        <g id="main_logo">
            <path d="M92,115.8 C89,127.8 86.3,138.5 84.3,149 L84,149 C82.6,138.9 80,127.5 77.3,116 L65.6,67.2 L52.6,67.2 L39.8,115.7 C36.5,128.1 33.5,139.5 32,149.1 L31.7,149.1 C30,139.8 27.4,127.8 24.6,115.9 L13.2,67.2 L0,67.2 L24.4,163.4 L37.4,163.4 L51.1,113.3 C54.7,100.9 56.8,91.5 58.5,81.9 L58.8,81.9 C60.1,91.6 62.1,101 65.1,113.3 L77.2,163.4 L90.2,163.4 L117.5,67.2 L104.8,67.2 L92,115.8 Z M133,67.1 C128.4,67.1 125.2,70.5 125.2,74.9 C125.2,79.2 128.3,82.6 132.8,82.6 C137.8,82.6 140.9,79.2 140.8,74.9 C140.7,70.6 137.7,67.1 133,67.1 Z M126.7,94.4 L139.3,94.4 L139.3,163.5 L126.7,163.5 L126.7,94.4 Z M194.5,92.8 C183.1,92.8 175.1,99.2 171.7,105.8 L171.4,105.8 L170.7,94.4 L159.6,94.4 C160,100.1 160.2,106 160.2,113.1 L160.2,163.5 L172.8,163.5 L172.8,122 C172.8,119.9 173.1,117.7 173.7,116.1 C175.8,109.1 182.3,103.3 190.5,103.3 C202.3,103.3 206.5,112.6 206.5,123.7 L206.5,163.5 L219.1,163.5 L219.1,122.3 C218.9,98.5 204,92.8 194.5,92.8 Z M298.9,62.1 L286.3,62.1 L286.3,103.3 L286,103.3 C282.9,97.7 275.7,92.7 265.2,92.7 C248.4,92.7 234.1,106.8 234.199479,129.8 C234.199479,150.8 247,164.9 263.7,164.9 C275,164.9 283.4,159 287.2,151.3 L287.5,151.3 L288.1,163.3 L299.4,163.3 C299,158.6 298.8,151.6 298.8,145.5 L298.8,62.1 L298.9,62.1 Z M286.4,134.5 C286.4,136.5 286.3,138.2 285.8,139.9 C283.5,149.3 275.8,154.9 267.4,154.9 C253.8,154.9 247,143.3 247,129.4 C247,114.1 254.7,102.7 267.7,102.7 C277.1,102.7 284,109.3 285.8,117.3 C286.2,118.9 286.4,121 286.4,122.6 L286.4,134.5 L286.4,134.5 Z M342,123.4 C333,120 328.9,117.4 328.9,111.7 C328.9,106.6 333,102.3 340.5,102.3 C346.9,102.3 351.9,104.6 354.6,106.3 L357.7,97.2 C353.8,94.9 347.7,92.9 340.7,92.9 C325.9,92.9 316.9,102 316.9,113.2 C316.9,121.5 322.7,128.3 335.2,132.7 C344.5,136.1 348,139.4 348,145.4 C348,151.1 343.7,155.7 334.6,155.7 C328.3,155.7 321.8,153.1 318,150.7 L314.9,160.3 C319.8,163.2 326.7,165 334.3,165 C350.7,165 360.1,156.4 360.1,144.3 C360.1,133.9 354,127.9 342,123.4 Z M410.9,92.8 C406.2,92.8 401.8,94.2 398.1,96.4 C394.2,98.5 391.1,101.7 389.1,105.3 L388.8,105.3 L388.8,62.2 L376.2,62.2 L376.2,163.5 L388.8,163.5 L388.8,121.8 C388.8,119.4 388.9,117.5 389.7,115.8 C392,109 398.4,103.3 406.5,103.3 C418.3,103.3 422.5,112.7 422.5,123.8 L422.5,163.5 L435,163.5 L435,122.4 C435,98.5 420.2,92.8 410.9,92.8 Z M455.5,94.4 L468.1,94.4 L468.1,163.5 L455.5,163.5 L455.5,94.4 Z M461.7,67.1 C457.1,67.1 453.9,70.5 453.9,74.9 C453.9,79.2 457,82.6 461.5,82.6 C466.5,82.6 469.6,79.2 469.5,74.9 C469.4,70.6 466.4,67.1 461.7,67.1 Z M516.2,92.8 C496.1,92.8 483.8,109.2 483.8,130 C483.8,150.8 496.5,164.8 517.8,164.8 C528.8,164.8 536.3,162.5 540.8,160.5 L538.7,151.5 C534,153.5 528.6,155.1 519.6,155.1 C507,155.1 496.2,148.1 495.9,131.1 L544.4,131.1 C544.5,129.8 544.8,127.8 544.8,125.3 C544.8,112.7 538.8,92.8 516.2,92.8 L516.2,92.8 Z M496,122.2 C497,113.5 502.6,101.8 515.3,101.8 C529.4,101.8 532.8,114.2 532.7,122.2 L496,122.2 Z M560.3,62.1 L572.9,62.1 L572.9,163.4 L560.3,163.4 L560.3,62.1 Z M653.6,145.6 L653.6,62.1 L641,62.1 L641,103.3 L640.7,103.3 C637.6,97.7 630.4,92.7 619.9,92.7 C603.1,92.7 588.8,106.8 588.899479,129.8 C588.899479,150.8 601.7,164.9 618.4,164.9 C629.7,164.9 638.1,159 641.9,151.3 L642.2,151.3 L642.8,163.3 L654.1,163.3 C653.8,158.7 653.6,151.8 653.6,145.6 L653.6,145.6 Z M641.1,134.5 C641.1,136.5 641,138.2 640.5,139.9 C638.2,149.3 630.5,154.9 622.1,154.9 C608.5,154.9 601.7,143.3 601.7,129.4 C601.7,114.1 609.4,102.7 622.4,102.7 C631.8,102.7 638.7,109.3 640.5,117.3 C640.9,118.9 641.1,121 641.1,122.6 L641.1,134.5 L641.1,134.5 Z" id="Shape" fill="#053B59" fill-rule="nonzero"></path>
            <path d="M921.7,109.8 C915.8,109.8 910.4,114.2 909,120.5 C908.7,121.8 908.6,123.1 908.6,124.5 L908.6,134.8 C908.6,136.2 908.7,137.5 909,138.6 C910.4,144.5 915.4,148.9 921.7,148.9 C931,148.9 936.7,141.8 936.7,129.2 C936.7,118.4 931.8,109.8 921.7,109.8 L921.7,109.8 Z M990.6,185.3 C980.1,151.8 966.9,119 954.2,88.4 L949.2,76.5 C947.2,72.7 945,69.2 942.4,66.1 L939.8,62.9 C938.5,61.5 937,60.2 935.4,59 C932.7,56.8 930.4,55.5 929.2,54.9 L929,54.9 C929,54.9 925.8,53.2 925,52.9 C912.4,46.7 898.4,42.2 882.1,39.1 C864.5,35.8 845.7,32.3 827.2,30 C824.8,29.7 822.3,29.4 819.9,29.1 L818,28.9 C792.8,26.2 766.7,24.5 740.6,23.8 C736.4,23.7 732.2,23.6 727.7,23.5 L727.7,105.3 L763.5,105.3 L763.5,68.3 L785.2,68.3 L785.2,178.2 C804.6,179.1 824.4,180 843.9,181.6 C856.3,182.6 869,183.2 881.2,183.7 C885.4,183.9 889.6,184.1 893.8,184.3 L902,184.7 C911.4,185.2 918.5,185.8 925.3,186.4 C943.4,188.1 961.8,189.4 979.7,190.6 C983.9,190.9 988,191.2 992.2,191.5 C991.8,189.4 991.3,187.3 990.6,185.3 L990.6,185.3 Z M851.2,164.5 L850.2,154.7 L849.8,154.7 C847.1,159 840.5,166.1 828,166.1 C813.9,166.1 803.5,157.2 803.5,135.7 L803.5,94.7 L825.3,94.7 L825.3,132.2 C825.3,142.3 828.6,148.5 836.1,148.5 C842.1,148.5 845.5,144.4 846.9,140.9 C847.5,139.6 847.6,137.9 847.6,136.2 L847.6,94.7 L869.4,94.7 L869.4,142.1 C869.4,151.2 869.7,158.6 870,164.5 L851.2,164.5 L851.2,164.5 Z M926.8,166.1 C918.7,166.1 910.8,163.1 905.8,154.8 L905.5,154.8 L904.6,164.5 L886.2,164.5 C886.5,159.9 886.8,151.5 886.8,143.7 L886.8,63.2 L908.5,63.2 L908.5,103 L908.8,103 C913,97 920.2,93.2 929.9,93.2 C946.6,93.2 958.9,107 958.7,128.4 C958.8,153.5 942.8,166.1 926.8,166.1 L926.8,166.1 Z M727.9,164.5 L706.1,164.5 L706.1,23.1 C704.2,23.1 702.4,23.1 700.4,23 L700,23 L700,175 C701,175 702.1,175.1 703.1,175.1 C706.2,175.1 709.4,175.2 712.6,175.3 C726.7,175.7 741.9,176.2 759.2,177 L763.7,177.2 L763.7,124.1 L727.9,124.1 L727.9,164.5 L727.9,164.5 Z" id="Shape" fill="#404040"></path>
            <path d="M1122.3,153.8 C1113.9,147.3 1104,143.8 1093.9,141.1 C1085.6,138.9 1077.1,137.3 1068.6,136.1 C1064.2,135.5 1059.5,136.1 1055.2,137.1 C1044.6,139.4 1039,147.1 1039.2,157.9 C1039.3,160.9 1039.3,163.9 1038.6,166.7 C1036.7,175.7 1036.6,175.6 1027.3,175.7 C1024.4,175.7 1023.2,174.5 1022.1,172 C1005.8,133.3 986.5,96.1 963.8,60.9 C962.5,58.9 961.1,56.8 959.8,54.8 C958.9,53.4 957.9,52.1 956.9,50.9 C949.1,41.2 938.2,35.4 926.8,30.5 C910.2,23.4 892.7,18.7 874.9,15.6 C860.6,13.1 846.3,10.2 831.9,8.4 C831.1,8.3 830.2,8.2 829.4,8.1 C827,7.8 824.6,7.5 822.2,7.3 C805.1,5.4 787.9,4 770.8,2.8 C744.4,0.9 717.9,0.1 691.4,5.68434189e-14 C687,5.68434189e-14 682.5,5.68434189e-14 678,5.68434189e-14 L678,211.5 L702.5,211.5 L680.8,271.1 L763.4,185.8 C761.8,185.7 760.1,185.7 758.5,185.6 C743,184.9 727.6,184.3 712.1,183.9 C708.9,183.8 705.8,183.7 702.6,183.7 C698.8,183.6 695.1,183.5 691.3,183.5 L691.3,14.7 C694.3,14.7 697.2,14.8 700.1,14.8 C713.6,15 727.1,15.2 740.6,15.6 C766.7,16.3 792.8,18 818.8,20.8 C819.4,20.9 820,20.9 820.6,21 C823.1,21.3 825.6,21.6 828,21.9 C846.6,24.2 865,27.6 883.4,31.1 C898.9,34 914.1,38.6 928.4,45.6 C929.2,46 929.9,46.4 930.7,46.8 C930.7,46.8 931.7,47.2 933.4,48.1 C935.1,49 937.4,50.5 940.1,52.6 C942.9,54.7 945.6,57.2 948,60.3 C948.2,60.6 948.4,60.8 948.6,61.1 C948.6,61.1 948.5,61.1 948.5,61.1 C953.2,66.9 957.9,74.7 961.5,85.4 C968.2,101.4 974.7,117.6 981,133.8 C987.2,150.1 993,166.4 998.2,183.1 C1000,188.7 1001.3,194.5 1002.9,200.3 C1001.7,200.7 1001.5,200.9 1001.2,200.9 C975.6,199 949.9,197.5 924.3,195.1 C916.6,194.4 909,193.9 901.3,193.4 C898.6,193.2 895.9,193.1 893.2,193 C876.5,192.2 859.8,191.7 843,190.3 C823.7,188.8 804.3,187.8 784.9,186.9 L761.6,211.5 L907,211.4 L921,211.4 L1001,211.3 C1005,211.4 1009,211.5 1013,211.6 C1013.8,211.6 1014.6,211.4 1015.9,211.3 C1011.4,181.5 998.8,154.6 988.9,126.8 C989.8,128.4 990.7,130 991.5,131.7 C999.7,148.6 1007.9,165.5 1015.9,182.5 C1016.9,184.5 1017.8,185.5 1020.2,185.5 C1026.1,185.2 1032.1,185.5 1038,185.2 C1039.4,185.1 1041.4,183.9 1042.1,182.6 C1046,175.4 1048.3,167.9 1047.8,159.5 C1047.1,149.8 1050.9,145.5 1060.7,144.3 C1072.4,142.9 1083.8,145.3 1094.9,148.6 C1102.7,150.9 1110.5,153.7 1117.5,157.8 C1128,164 1129,171.8 1121.3,181.4 C1111.6,193.5 1099,200.4 1083.5,201.3 C1075.8,201.7 1068,200.7 1060.3,200.2 C1057.1,200 1053.9,199.8 1050.7,200 C1068.7,203.1 1086.7,207.3 1104.6,199.2 C1113,195.4 1120.2,190.1 1125.9,182.9 C1134.1,172.2 1132.7,162 1122.3,153.8 L1122.3,153.8 Z" id="Path" fill="#0899CD" fill-rule="nonzero"></path>
            <path d="M19.3,218.9 L19.3,189.1 L23.2,189.1 L23.2,218.9 L19.3,218.9 Z M33.5,195.3 L33.5,199.1 C35.1,196.3 37.7,194.9 41.2,194.9 C43.8,194.9 46,195.8 47.7,197.5 C49.4,199.2 50.3,201.7 50.3,204.9 L50.3,218.9 L46.4,218.9 L46.4,205.6 C46.4,203.2 45.8,201.4 44.7,200.2 C43.6,199 42,198.4 39.9,198.4 C37.8,198.4 36.3,199 35.1,200.2 C33.9,201.4 33.4,203.2 33.4,205.6 L33.4,218.9 L29.5,218.9 L29.5,195.3 L33.5,195.3 L33.5,195.3 Z M55.8,201.9 C55.8,199.9 56.6,198.3 58.3,196.9 C59.9,195.5 62.1,194.9 64.7,194.9 C67.3,194.9 69.4,195.6 70.9,196.9 C72.4,198.2 73.2,200.1 73.4,202.4 L69.4,202.4 C69.3,201.1 68.9,200 68.1,199.2 C67.3,198.4 66.1,198 64.6,198 C63.1,198 62,198.4 61.1,199.1 C60.3,199.8 59.8,200.7 59.8,201.8 C59.8,202.9 60.3,203.8 61.2,204.4 C62.2,205 63.3,205.4 64.7,205.7 C66.1,206 67.4,206.3 68.8,206.6 C70.2,207 71.3,207.6 72.3,208.6 C73.3,209.6 73.7,211 73.7,212.8 C73.7,214.6 72.9,216.2 71.2,217.4 C69.5,218.6 67.4,219.3 64.8,219.3 C62.2,219.3 60,218.6 58.5,217.3 C56.9,216 56,214.2 55.9,211.8 L59.9,211.8 C60,213.1 60.4,214.2 61.3,215 C62.2,215.8 63.4,216.2 64.9,216.2 C66.4,216.2 67.6,215.9 68.5,215.2 C69.4,214.5 69.8,213.7 69.8,212.7 C69.8,211.7 69.5,210.9 68.8,210.3 C68.1,209.7 67.3,209.3 66.2,209.1 C65.2,208.9 64,208.6 62.8,208.3 C61.6,208 60.5,207.6 59.4,207.3 C58.4,206.9 57.5,206.3 56.8,205.4 C56.1,204.5 55.8,203.3 55.8,201.9 L55.8,201.9 Z M87,215.7 L90.2,215.7 L90.2,218.9 L86.2,218.9 C82.1,218.9 80.1,216.9 80.1,212.8 L80.1,198.4 L77,198.4 L77,195.2 L80.1,195.2 L80.1,189.4 L84.1,189.4 L84.1,195.2 L90.2,195.2 L90.2,198.4 L84.1,198.4 L84.1,212.8 C84.1,213.9 84.3,214.6 84.7,215 C85.1,215.4 85.9,215.7 87,215.7 L87,215.7 Z M96.2,215.8 C94.1,213.5 93,210.5 93,206.9 C93,203.3 94.1,200.4 96.2,198.2 C98.3,196 101,194.9 104.3,194.9 C106.3,194.9 108.1,195.4 109.6,196.3 C111.1,197.2 112.2,198.5 113,200 L113,195.3 L117,195.3 L117,218.9 L113,218.9 L113,214.1 C112.2,215.6 111.1,216.9 109.6,217.9 C108.1,218.9 106.3,219.3 104.3,219.3 C101,219.3 98.3,218.1 96.2,215.8 Z M110.6,213.5 C112.2,211.9 112.9,209.8 112.9,207.1 C112.9,204.4 112.1,202.3 110.6,200.7 C109,199.1 107.2,198.3 105,198.3 C102.8,198.3 100.9,199.1 99.4,200.6 C97.8,202.1 97.1,204.3 97.1,206.9 C97.1,209.5 97.9,211.7 99.5,213.4 C101.1,215.1 103,215.9 105.1,215.9 C107.1,215.9 109,215.1 110.6,213.5 L110.6,213.5 Z M127.2,195.3 L127.2,199.1 C128.8,196.3 131.4,194.9 134.9,194.9 C137.5,194.9 139.7,195.8 141.4,197.5 C143.1,199.2 144,201.7 144,204.9 L144,218.9 L140.1,218.9 L140.1,205.6 C140.1,203.2 139.5,201.4 138.4,200.2 C137.3,199 135.7,198.4 133.6,198.4 C131.5,198.4 130,199 128.8,200.2 C127.6,201.4 127.1,203.2 127.1,205.6 L127.1,218.9 L123.2,218.9 L123.2,195.3 L127.2,195.3 L127.2,195.3 Z M158.1,215.7 L161.3,215.7 L161.3,218.9 L157.3,218.9 C153.2,218.9 151.2,216.9 151.2,212.8 L151.2,198.4 L148.1,198.4 L148.1,195.2 L151.2,195.2 L151.2,189.4 L155.2,189.4 L155.2,195.2 L161.3,195.2 L161.3,198.4 L155.2,198.4 L155.2,212.8 C155.2,213.9 155.4,214.6 155.8,215 C156.2,215.4 157,215.7 158.1,215.7 L158.1,215.7 Z M199,218.9 L196.7,212.4 L183.5,212.4 L181.2,218.9 L177.2,218.9 L188,189.1 L192.3,189.1 L203.1,218.9 L199,218.9 Z M184.6,209.2 L195.6,209.2 L190.1,193.8 L184.6,209.2 Z M224.8,195.3 L228.7,195.3 L228.7,218.9 L224.8,218.9 L224.8,215.1 C223.2,217.9 220.7,219.3 217.1,219.3 C214.5,219.3 212.3,218.4 210.6,216.7 C208.9,215 208,212.5 208,209.3 L208,195.3 L211.9,195.3 L211.9,208.7 C211.9,211.1 212.5,212.8 213.6,214.1 C214.7,215.4 216.3,216 218.4,216 C220.4,216 222,215.4 223.2,214.1 C224.4,212.8 224.9,211.1 224.9,208.7 L224.9,195.3 L224.8,195.3 Z M242.9,215.7 L246.1,215.7 L246.1,218.9 L242.1,218.9 C238,218.9 236,216.9 236,212.8 L236,198.4 L233,198.4 L233,195.2 L236.1,195.2 L236.1,189.4 L240.1,189.4 L240.1,195.2 L246.2,195.2 L246.2,198.4 L240,198.4 L240,212.8 C240,213.9 240.2,214.6 240.6,215 C241,215.4 241.9,215.7 242.9,215.7 L242.9,215.7 Z M252.2,215.9 C250,213.7 249,210.7 249,207.1 C249,203.5 250.1,200.5 252.4,198.3 C254.7,196 257.5,194.9 260.9,194.9 C264.3,194.9 267.1,196 269.4,198.3 C271.7,200.6 272.8,203.5 272.8,207.1 C272.8,210.7 271.6,213.7 269.3,215.9 C266.9,218.2 264,219.3 260.6,219.3 C257.1,219.3 254.3,218.1 252.2,215.9 L252.2,215.9 Z M260.5,216 C262.7,216 264.6,215.2 266.2,213.6 C267.8,212 268.6,209.8 268.6,207 C268.6,204.2 267.8,202 266.3,200.4 C264.8,198.8 262.9,198 260.6,198 C258.4,198 256.5,198.8 255,200.4 C253.5,202 252.8,204.2 252.8,207 C252.8,209.8 253.5,212 255,213.6 C256.5,215.2 258.3,216 260.5,216 Z M303.9,219.1 C299.8,219.1 296.3,217.7 293.3,214.8 C290.4,211.9 288.9,208.3 288.9,203.9 C288.9,199.5 290.4,195.9 293.3,193 C296.2,190.1 299.8,188.7 304.1,188.7 C307.2,188.7 310,189.4 312.4,190.9 C314.8,192.4 316.6,194.5 317.8,197.2 L313.1,197.2 C311.3,193.8 308.4,192.2 304.2,192.2 C301,192.2 298.3,193.3 296.2,195.4 C294.1,197.5 293,200.4 293,203.9 C293,207.4 294.1,210.3 296.2,212.4 C298.3,214.6 300.9,215.6 304.1,215.6 C307.3,215.6 309.8,214.7 311.7,212.9 C313.6,211.1 314.7,208.7 315,205.7 L302.7,205.7 L302.7,202.6 L319.1,202.6 L319.1,205.7 C318.7,209.5 317.1,212.7 314.3,215.2 C311.5,217.9 308.1,219.1 303.9,219.1 Z M324,218.9 L324,187 L327.9,187 L327.9,218.8 L324,218.8 L324,218.9 Z M336,215.8 C333.8,213.5 332.8,210.5 332.8,206.9 C332.8,203.3 333.9,200.4 336,198.2 C338.1,196 340.8,194.9 344.1,194.9 C346.1,194.9 347.9,195.4 349.4,196.3 C350.9,197.2 352,198.5 352.8,200 L352.8,195.3 L356.8,195.3 L356.8,218.9 L352.8,218.9 L352.8,214.1 C352,215.6 350.9,216.9 349.4,217.9 C347.9,218.9 346.1,219.3 344.1,219.3 C340.8,219.3 338.1,218.1 336,215.8 Z M350.4,213.5 C352,211.9 352.7,209.8 352.7,207.1 C352.7,204.4 351.9,202.3 350.4,200.7 C348.8,199.1 347,198.3 344.8,198.3 C342.6,198.3 340.7,199.1 339.2,200.6 C337.6,202.1 336.9,204.3 336.9,206.9 C336.9,209.5 337.7,211.7 339.3,213.4 C340.9,215.1 342.8,215.9 344.9,215.9 C347,215.9 348.8,215.1 350.4,213.5 L350.4,213.5 Z M362.3,201.9 C362.3,199.9 363.1,198.3 364.8,196.9 C366.4,195.5 368.6,194.9 371.2,194.9 C373.8,194.9 375.9,195.6 377.4,196.9 C378.9,198.2 379.7,200.1 379.9,202.4 L375.9,202.4 C375.8,201.1 375.4,200 374.6,199.2 C373.8,198.4 372.6,198 371.1,198 C369.6,198 368.5,198.4 367.6,199.1 C366.8,199.8 366.3,200.7 366.3,201.8 C366.3,202.9 366.8,203.8 367.7,204.4 C368.7,205 369.8,205.4 371.2,205.7 C372.6,206 373.9,206.3 375.3,206.6 C376.7,206.9 377.8,207.6 378.8,208.6 C379.8,209.6 380.2,211 380.2,212.8 C380.2,214.6 379.4,216.2 377.7,217.4 C376,218.6 373.9,219.3 371.3,219.3 C368.7,219.3 366.5,218.6 365,217.3 C363.5,216 362.5,214.2 362.4,211.8 L366.4,211.8 C366.5,213.1 366.9,214.2 367.8,215 C368.7,215.8 369.9,216.2 371.4,216.2 C372.9,216.2 374.1,215.9 375,215.2 C375.9,214.5 376.3,213.7 376.3,212.7 C376.3,211.7 376,210.9 375.3,210.3 C374.6,209.7 373.8,209.3 372.7,209.1 C371.7,208.9 370.5,208.6 369.3,208.3 C368.1,208 367,207.6 365.9,207.3 C364.9,206.9 364,206.3 363.3,205.4 C362.6,204.4 362.3,203.3 362.3,201.9 L362.3,201.9 Z M384.9,201.9 C384.9,199.9 385.7,198.3 387.4,196.9 C389,195.5 391.2,194.9 393.8,194.9 C396.4,194.9 398.5,195.6 400,196.9 C401.5,198.2 402.3,200.1 402.5,202.4 L398.5,202.4 C398.4,201.1 398,200 397.2,199.2 C396.4,198.4 395.2,198 393.7,198 C392.2,198 391.1,198.4 390.2,199.1 C389.4,199.8 388.9,200.7 388.9,201.8 C388.9,202.9 389.4,203.8 390.3,204.4 C391.3,205 392.4,205.4 393.8,205.7 C395.2,206 396.5,206.3 397.9,206.6 C399.3,206.9 400.4,207.6 401.4,208.6 C402.4,209.6 402.8,211 402.8,212.8 C402.8,214.6 402,216.2 400.3,217.4 C398.6,218.6 396.5,219.3 393.9,219.3 C391.3,219.3 389.1,218.6 387.6,217.3 C386.1,216 385.1,214.2 385,211.8 L389,211.8 C389.1,213.1 389.5,214.2 390.4,215 C391.3,215.8 392.5,216.2 394,216.2 C395.5,216.2 396.7,215.9 397.6,215.2 C398.5,214.5 398.9,213.7 398.9,212.7 C398.9,211.7 398.6,210.9 397.9,210.3 C397.2,209.7 396.4,209.3 395.3,209.1 C394.3,208.9 393.1,208.6 391.9,208.3 C390.7,208 389.6,207.6 388.5,207.3 C387.5,206.9 386.6,206.3 385.9,205.4 C385.2,204.4 384.9,203.3 384.9,201.9 L384.9,201.9 Z M434.9,219.2 C430.6,219.2 427,217.8 424.1,214.9 C421.2,212 419.7,208.4 419.7,204 C419.7,199.6 421.2,196 424.1,193.1 C427,190.2 430.6,188.8 434.9,188.8 C439.2,188.8 442.8,190.2 445.7,193.1 C448.6,196 450.1,199.6 450.1,204 C450.1,206.8 449.5,209.4 448.2,211.7 C446.9,214 445.2,215.8 443,217.1 L450.6,224.6 L445.4,224.6 L439.4,218.6 C438,219 436.5,219.2 434.9,219.2 L434.9,219.2 Z M426.8,195.5 C424.7,197.6 423.6,200.5 423.6,204 C423.6,207.5 424.7,210.4 426.8,212.5 C428.9,214.7 431.6,215.7 434.8,215.7 C438,215.7 440.7,214.6 442.8,212.5 C444.9,210.4 445.9,207.5 445.9,204 C445.9,200.5 444.9,197.6 442.8,195.5 C440.7,193.4 438,192.3 434.8,192.3 C431.6,192.2 428.9,193.3 426.8,195.5 Z M471.7,195.3 L475.6,195.3 L475.6,218.9 L471.7,218.9 L471.7,215.1 C470.1,217.9 467.6,219.3 464,219.3 C461.4,219.3 459.2,218.4 457.5,216.7 C455.8,215 454.9,212.5 454.9,209.3 L454.9,195.3 L458.8,195.3 L458.8,208.7 C458.8,211.1 459.4,212.8 460.5,214.1 C461.7,215.3 463.2,216 465.3,216 C467.3,216 468.9,215.4 470.1,214.1 C471.3,212.9 471.8,211.1 471.8,208.7 L471.8,195.3 L471.7,195.3 Z M483.7,215.9 C481.5,213.7 480.5,210.7 480.5,207.1 C480.5,203.5 481.6,200.5 483.9,198.3 C486.2,196 489,194.9 492.4,194.9 C495.8,194.9 498.6,196 500.9,198.3 C503.2,200.6 504.3,203.5 504.3,207.1 C504.3,210.7 503.1,213.7 500.8,215.9 C498.4,218.2 495.5,219.3 492.1,219.3 C488.7,219.3 485.9,218.1 483.7,215.9 Z M492.1,216 C494.3,216 496.2,215.2 497.8,213.6 C499.4,212 500.2,209.8 500.2,207 C500.2,204.2 499.4,202 497.9,200.4 C496.4,198.8 494.5,198 492.2,198 C489.9,198 488.1,198.8 486.6,200.4 C485.1,202 484.4,204.2 484.4,207 C484.4,209.8 485.1,212 486.6,213.6 C488.1,215.2 489.9,216 492.1,216 L492.1,216 Z M516.9,215.7 L520.1,215.7 L520.1,218.9 L516.1,218.9 C512,218.9 510,216.9 510,212.8 L510,198.4 L507,198.4 L507,195.2 L510.1,195.2 L510.1,189.4 L514.1,189.4 L514.1,195.2 L520.2,195.2 L520.2,198.4 L514,198.4 L514,212.8 C514,213.9 514.2,214.6 514.6,215 C515.1,215.5 515.8,215.7 516.9,215.7 L516.9,215.7 Z M534.4,219.3 C531,219.3 528.3,218.2 526.1,215.9 C524,213.7 522.9,210.7 522.9,207 C522.9,203.3 524,200.4 526.1,198.2 C528.2,196 531,194.9 534.5,194.9 C537.9,194.9 540.7,196 542.8,198.1 C544.9,200.2 545.9,202.9 545.9,206.2 C545.9,207 545.8,207.8 545.7,208.5 L526.9,208.5 C527,210.9 527.8,212.7 529.1,214.1 C530.5,215.5 532.2,216.1 534.3,216.1 C535.9,216.1 537.3,215.7 538.4,215 C539.5,214.3 540.3,213.3 540.8,212.2 L545,212.2 C544.3,214.3 543,216 541.2,217.3 C539.4,218.6 537.1,219.3 534.4,219.3 L534.4,219.3 Z M539.6,200.1 C538.2,198.7 536.5,198.1 534.4,198.1 C532.3,198.1 530.6,198.8 529.2,200.1 C527.8,201.4 527.1,203.3 526.9,205.6 L541.7,205.6 C541.8,203.3 541,201.5 539.6,200.1 L539.6,200.1 Z M549.9,201.9 C549.9,199.9 550.7,198.3 552.4,196.9 C554,195.5 556.2,194.9 558.8,194.9 C561.4,194.9 563.5,195.6 565,196.9 C566.5,198.2 567.3,200.1 567.5,202.4 L563.5,202.4 C563.4,201.1 563,200 562.2,199.2 C561.4,198.4 560.2,198 558.7,198 C557.2,198 556.1,198.4 555.2,199.1 C554.4,199.8 553.9,200.7 553.9,201.8 C553.9,202.9 554.4,203.8 555.3,204.4 C556.3,205 557.4,205.4 558.8,205.7 C560.2,206 561.5,206.3 562.9,206.6 C564.3,206.9 565.4,207.6 566.4,208.6 C567.4,209.6 567.8,211 567.8,212.8 C567.8,214.6 567,216.2 565.3,217.4 C563.7,218.6 561.5,219.3 558.9,219.3 C556.3,219.3 554.1,218.6 552.6,217.3 C551.1,216 550.1,214.2 550,211.8 L554,211.8 C554.1,213.1 554.5,214.2 555.4,215 C556.3,215.8 557.5,216.2 559,216.2 C560.5,216.2 561.7,215.9 562.6,215.2 C563.5,214.5 563.9,213.7 563.9,212.7 C563.9,211.7 563.6,210.9 562.9,210.3 C562.2,209.7 561.4,209.3 560.3,209.1 C559.3,208.9 558.1,208.6 556.9,208.3 C555.7,208 554.6,207.6 553.5,207.3 C552.5,206.9 551.6,206.3 550.9,205.4 C550.2,204.4 549.9,203.3 549.9,201.9 L549.9,201.9 Z" id="Shape" fill="#787878" fill-rule="nonzero"></path>
        </g>
    </g>
</svg>